<svg width="31" height="31" viewBox="0 0 31 31" fill="none" xmlns="http://www.w3.org/2000/svg">
<path d="M16 6C17.3261 6 18.5979 6.52678 19.5355 7.46447C20.4732 8.40215 21 9.67392 21 11C21 12.3261 20.4732 13.5979 19.5355 14.5355C18.5979 15.4732 17.3261 16 16 16C14.6739 16 13.4021 15.4732 12.4645 14.5355C11.5268 13.5979 11 12.3261 11 11C11 9.67392 11.5268 8.40215 12.4645 7.46447C13.4021 6.52678 14.6739 6 16 6V6ZM16 18.5C21.525 18.5 26 20.7375 26 23.5V26H6V23.5C6 20.7375 10.475 18.5 16 18.5Z" fill="#525252"/>
</svg>
