<svg width="18" height="18" viewBox="0 0 18 18" fill="none" xmlns="http://www.w3.org/2000/svg">
<g clip-path="url(#clip0)">
<path d="M6 12.75L9 15.75L12 12.75" stroke="#666666" stroke-width="2" stroke-linecap="round" stroke-linejoin="round"/>
<path d="M9 9V15.75" stroke="#666666" stroke-width="2" stroke-linecap="round" stroke-linejoin="round"/>
<path d="M15.6601 13.5674C16.3122 13.1089 16.8012 12.4546 17.0561 11.6993C17.311 10.9441 17.3187 10.1272 17.0779 9.36732C16.8372 8.60742 16.3605 7.94402 15.7172 7.47337C15.0738 7.00272 14.2973 6.74933 13.5001 6.74995H12.5551C12.3296 5.87085 11.9075 5.05439 11.3207 4.36201C10.7339 3.66963 9.99774 3.11939 9.16754 2.75271C8.33734 2.38604 7.43477 2.21247 6.52778 2.24509C5.62079 2.2777 4.73302 2.51565 3.9313 2.94102C3.12958 3.36639 2.4348 3.96809 1.89927 4.70082C1.36375 5.43356 1.00142 6.27823 0.839579 7.17126C0.677735 8.06429 0.72059 8.9824 0.964918 9.85646C1.20924 10.7305 1.64868 11.5378 2.25013 12.2174" stroke="#666666" stroke-width="2" stroke-linecap="round" stroke-linejoin="round"/>
</g>
<defs>
<clipPath id="clip0">
<rect width="18" height="18" fill="white"/>
</clipPath>
</defs>
</svg>
