<svg width="16" height="16" viewBox="0 0 16 16" fill="none" xmlns="http://www.w3.org/2000/svg">
<path d="M4.00001 3C3.46958 3 2.96086 3.21071 2.58579 3.58579C2.21071 3.96086 2 4.46958 2 5.00001V5.20101L8.00003 8.43203L14.0001 5.20201V5.00001C14.0001 4.46958 13.7894 3.96086 13.4143 3.58579C13.0392 3.21071 12.5305 3 12.0001 3H4.00001Z" fill="#666666"/>
<path d="M14.0001 6.33691L8.23704 9.43993C8.16419 9.47914 8.08276 9.49967 8.00003 9.49967C7.91731 9.49967 7.83587 9.47914 7.76303 9.43993L2 6.33691V10.9999C2 11.5304 2.21071 12.0391 2.58579 12.4142C2.96086 12.7892 3.46958 13 4.00001 13H12.0001C12.5305 13 13.0392 12.7892 13.4143 12.4142C13.7894 12.0391 14.0001 11.5304 14.0001 10.9999V6.33691Z" fill="#666666"/>
</svg>
