<svg width="31" height="31" viewBox="0 0 31 31" fill="none" xmlns="http://www.w3.org/2000/svg">
<path fill-rule="evenodd" clip-rule="evenodd" d="M15.36 30.72C23.8431 30.72 30.72 23.8431 30.72 15.36C30.72 6.87691 23.8431 0 15.36 0C6.87691 0 0 6.87691 0 15.36C0 23.8431 6.87691 30.72 15.36 30.72ZM11.0866 15.7952C11.0866 13.3966 12.9963 11.4618 15.3637 11.4618C17.7312 11.4618 19.6408 13.3966 19.6408 15.7952C19.6408 18.1938 17.7312 20.1286 15.3637 20.1286C12.9963 20.1286 11.0866 18.1938 11.0866 15.7952ZM12.5831 15.7952C12.5831 17.349 13.8338 18.6125 15.3637 18.6125C16.8937 18.6125 18.1444 17.349 18.1444 15.7952C18.1444 14.2414 16.8974 12.9779 15.3637 12.9779C13.8301 12.9779 12.5831 14.2414 12.5831 15.7952ZM19.8158 12.2953C20.3667 12.2953 20.8134 11.8465 20.8134 11.2846C20.8134 10.7264 20.3667 10.2738 19.8158 10.2738C19.2649 10.2738 18.8182 10.7264 18.8182 11.2846C18.8182 11.8427 19.2611 12.2953 19.8158 12.2953ZM22.2987 8.76903C23.2777 9.75715 23.5829 10.9565 23.6462 12.3104C23.7243 13.7058 23.7243 17.8846 23.6462 19.28C23.5792 20.634 23.2739 21.8333 22.2987 22.8214C21.3234 23.8133 20.1396 24.1225 18.8033 24.1866C17.426 24.2658 13.2978 24.2658 11.9205 24.1866C10.5841 24.1188 9.40409 23.8095 8.42508 22.8214C7.44608 21.8333 7.14084 20.634 7.07756 19.28C6.99939 17.8846 6.99939 13.7021 7.07756 12.3066C7.14456 10.9527 7.44608 9.75338 8.42508 8.76526C9.40409 7.77715 10.5878 7.46789 11.9205 7.40378C13.2978 7.32457 17.426 7.32457 18.8033 7.40378C20.1396 7.47166 21.3234 7.78092 22.2987 8.76903ZM20.2811 22.3839C21.0144 22.086 21.5765 21.5165 21.8668 20.7773C22.2404 19.8262 22.2196 17.7459 22.2061 16.3974C22.2039 16.1737 22.2019 15.9701 22.2019 15.7952C22.2019 15.6202 22.2039 15.4167 22.2061 15.1931C22.2196 13.8453 22.2404 11.7674 21.8668 10.8131C21.5728 10.0702 21.0107 9.50069 20.2811 9.20652C19.3394 8.8301 17.2762 8.85015 15.9456 8.86308C15.7297 8.86518 15.5331 8.86709 15.3637 8.86709C15.191 8.86709 14.9902 8.86503 14.7694 8.86276C13.4391 8.84911 11.3882 8.82805 10.4464 9.20652C9.71305 9.50446 9.15096 10.0739 8.86061 10.8131C8.48908 11.7672 8.50887 13.8576 8.52163 15.2057C8.5237 15.4244 8.52559 15.6236 8.52559 15.7952C8.52559 15.9702 8.52355 16.1737 8.52132 16.3973C8.50784 17.7451 8.48706 19.823 8.86061 20.7773C9.15468 21.5202 9.71677 22.0897 10.4464 22.3839C11.388 22.7603 13.4513 22.7403 14.7819 22.7273C14.9978 22.7252 15.1943 22.7233 15.3637 22.7233C15.5364 22.7233 15.7373 22.7254 15.958 22.7277C17.2883 22.7413 19.3392 22.7624 20.2811 22.3839Z" fill="#525252"/>
</svg>
