<svg width="33" height="32" viewBox="0 0 33 32" fill="none" xmlns="http://www.w3.org/2000/svg">
<g clip-path="url(#clip0)">
<path fill-rule="evenodd" clip-rule="evenodd" d="M16 32C24.8366 32 32 24.8366 32 16C32 7.16344 24.8366 0 16 0C7.16344 0 0 7.16344 0 16C0 24.8366 7.16344 32 16 32ZM11.5487 16.4531C11.5487 13.9545 13.5379 11.9391 16.004 11.9391C18.4701 11.9391 20.4593 13.9545 20.4593 16.4531C20.4593 18.9516 18.4701 20.967 16.004 20.967C13.5379 20.967 11.5487 18.9516 11.5487 16.4531ZM13.1075 16.4531C13.1075 18.0716 14.4103 19.3877 16.004 19.3877C17.5977 19.3877 18.9006 18.0716 18.9006 16.4531C18.9006 14.8345 17.6016 13.5184 16.004 13.5184C14.4065 13.5184 13.1075 14.8345 13.1075 16.4531ZM20.6416 12.8073C21.2155 12.8073 21.6808 12.3398 21.6808 11.7545C21.6808 11.1731 21.2155 10.7016 20.6416 10.7016C20.0677 10.7016 19.6024 11.1731 19.6024 11.7545C19.6024 12.3359 20.0638 12.8073 20.6416 12.8073ZM23.2279 9.13413C24.2477 10.1634 24.5657 11.4127 24.6316 12.8231C24.713 14.2766 24.713 18.6295 24.6316 20.0831C24.5618 21.4934 24.2438 22.7427 23.2279 23.772C22.212 24.8052 20.9789 25.1274 19.5869 25.1941C18.1522 25.2766 13.852 25.2766 12.4173 25.1941C11.0252 25.1234 9.79606 24.8013 8.77627 23.772C7.75647 22.7427 7.43851 21.4934 7.37259 20.0831C7.29117 18.6295 7.29117 14.2727 7.37259 12.8191C7.44239 11.4088 7.75647 10.1595 8.77627 9.1302C9.79606 8.10091 11.0291 7.77877 12.4173 7.71199C13.852 7.62949 18.1522 7.62949 19.5869 7.71199C20.9789 7.7827 22.212 8.10484 23.2279 9.13413ZM21.1263 23.3163C21.8901 23.0059 22.4757 22.4127 22.7781 21.6427C23.1672 20.652 23.1456 18.485 23.1315 17.0803C23.1292 16.8473 23.1271 16.6353 23.1271 16.4531C23.1271 16.2708 23.1292 16.0588 23.1315 15.8259C23.1456 14.4219 23.1672 12.2574 22.7781 11.2634C22.4718 10.4895 21.8863 9.89627 21.1263 9.58984C20.1454 9.19774 17.9962 9.21863 16.6101 9.2321C16.3852 9.23428 16.1805 9.23627 16.004 9.23627C15.8241 9.23627 15.6149 9.23413 15.385 9.23176C13.9992 9.21754 11.8629 9.19561 10.8818 9.58984C10.1179 9.9002 9.53239 10.4934 9.22994 11.2634C8.84293 12.2572 8.86355 14.4347 8.87684 15.839C8.879 16.0668 8.88096 16.2743 8.88096 16.4531C8.88096 16.6353 8.87884 16.8473 8.87651 17.0803C8.86247 18.4842 8.84083 20.6487 9.22994 21.6427C9.53627 22.4166 10.1218 23.0099 10.8818 23.3163C11.8627 23.7084 14.0119 23.6875 15.3979 23.674C15.6228 23.6718 15.8276 23.6699 16.004 23.6699C16.1839 23.6699 16.3932 23.672 16.6231 23.6744C18.0088 23.6886 20.1452 23.7105 21.1263 23.3163Z" fill="#959595"/>
</g>
<defs>
<clipPath id="clip0">
<rect width="32" height="32" fill="white" transform="translate(0.244629)"/>
</clipPath>
</defs>
</svg>
