<svg width="16" height="16" viewBox="0 0 16 16" fill="none" xmlns="http://www.w3.org/2000/svg">
<path d="M8.00001 1C6.54184 1.00172 5.1439 1.58174 4.11282 2.61281C3.08174 3.64389 2.50173 5.04184 2.50001 6.5C2.49826 7.69161 2.8875 8.85089 3.60801 9.8C3.60801 9.8 3.75801 9.9975 3.78251 10.026L8.00001 15L12.2195 10.0235C12.2415 9.997 12.392 9.8 12.392 9.8L12.3925 9.7985C13.1127 8.84981 13.5017 7.69107 13.5 6.5C13.4983 5.04184 12.9183 3.64389 11.8872 2.61281C10.8561 1.58174 9.45817 1.00172 8.00001 1V1ZM10.105 6.851L8.00151 9L5.89501 6.851C5.64208 6.58985 5.50065 6.24055 5.50065 5.877C5.50065 5.51345 5.64208 5.16415 5.89501 4.903C6.01904 4.77551 6.16736 4.67418 6.33122 4.60498C6.49508 4.53579 6.67114 4.50014 6.84901 4.50014C7.02687 4.50014 7.20294 4.53579 7.36679 4.60498C7.53065 4.67418 7.67897 4.77551 7.80301 4.903L8.00151 5.1055L8.19801 4.903C8.32204 4.77551 8.47036 4.67418 8.63422 4.60498C8.79808 4.53579 8.97414 4.50014 9.15201 4.50014C9.32987 4.50014 9.50594 4.53579 9.66979 4.60498C9.83365 4.67418 9.98197 4.77551 10.106 4.903C10.3589 5.16415 10.5004 5.51345 10.5004 5.877C10.5004 6.24055 10.3589 6.58985 10.106 6.851H10.105Z" fill="#666666"/>
</svg>
