<svg width="31" height="31" viewBox="0 0 31 31" fill="none" xmlns="http://www.w3.org/2000/svg">
<path d="M15.36 0C6.87771 0 0 6.87771 0 15.36C0 23.8423 6.87771 30.72 15.36 30.72C23.8423 30.72 30.72 23.8423 30.72 15.36C30.72 6.87771 23.8423 0 15.36 0ZM24.1371 8.69829L22.7383 10.0389C22.6149 10.1314 22.5566 10.2823 22.5806 10.4297V20.2937C22.5566 20.4446 22.6149 20.5954 22.7383 20.6846L24.1097 22.0251V22.3234H17.2251V22.0389L18.6411 20.664C18.7817 20.5234 18.7817 20.4823 18.7817 20.2731V12.2914L14.8389 22.2891H14.3074L9.72 12.2914V18.9943C9.67886 19.2754 9.77829 19.56 9.97714 19.7623L11.8217 21.9943V22.2926H6.58286V21.9943L8.42743 19.7623C8.52461 19.6619 8.59694 19.5401 8.63862 19.4068C8.68029 19.2734 8.69016 19.1321 8.66743 18.9943V11.2457C8.69143 11.0297 8.60914 10.8206 8.44457 10.6731L6.80571 8.69829V8.4H11.8971L15.8263 17.0229L19.2857 8.40686H24.1371V8.69829Z" fill="#525252"/>
</svg>
