<svg width="16" height="16" viewBox="0 0 16 16" fill="none" xmlns="http://www.w3.org/2000/svg">
<path d="M10.5733 9C10.6267 8.56 10.6667 8.12 10.6667 7.66667C10.6667 7.21333 10.6267 6.77333 10.5733 6.33333H12.8267C12.9333 6.76 13 7.20667 13 7.66667C13 8.12667 12.9333 8.57333 12.8267 9H10.5733ZM9.39333 12.7067C9.79333 11.9667 10.1 11.1667 10.3133 10.3333H12.28C11.6341 11.4455 10.6094 12.288 9.39333 12.7067V12.7067ZM9.22667 9H6.10667C6.04 8.56 6 8.12 6 7.66667C6 7.21333 6.04 6.76667 6.10667 6.33333H9.22667C9.28667 6.76667 9.33333 7.21333 9.33333 7.66667C9.33333 8.12 9.28667 8.56 9.22667 9ZM7.66667 12.9733C7.11333 12.1733 6.66667 11.2867 6.39333 10.3333H8.94C8.66667 11.2867 8.22 12.1733 7.66667 12.9733ZM5 5H3.05333C3.69257 3.88481 4.71653 3.04099 5.93333 2.62667C5.53333 3.36667 5.23333 4.16667 5 5ZM3.05333 10.3333H5C5.23333 11.1667 5.53333 11.9667 5.93333 12.7067C4.71908 12.2878 3.69656 11.4451 3.05333 10.3333V10.3333ZM2.50667 9C2.4 8.57333 2.33333 8.12667 2.33333 7.66667C2.33333 7.20667 2.4 6.76 2.50667 6.33333H4.76C4.70667 6.77333 4.66667 7.21333 4.66667 7.66667C4.66667 8.12 4.70667 8.56 4.76 9H2.50667ZM7.66667 2.35333C8.22 3.15333 8.66667 4.04667 8.94 5H6.39333C6.66667 4.04667 7.11333 3.15333 7.66667 2.35333V2.35333ZM12.28 5H10.3133C10.1047 4.17431 9.79572 3.37726 9.39333 2.62667C10.62 3.04667 11.64 3.89333 12.28 5ZM7.66667 1C3.98 1 1 4 1 7.66667C1 9.43478 1.70238 11.1305 2.95262 12.3807C3.57168 12.9998 4.30661 13.4908 5.11544 13.8259C5.92428 14.1609 6.79119 14.3333 7.66667 14.3333C9.43478 14.3333 11.1305 13.631 12.3807 12.3807C13.631 11.1305 14.3333 9.43478 14.3333 7.66667C14.3333 6.79119 14.1609 5.92428 13.8259 5.11544C13.4908 4.30661 12.9998 3.57168 12.3807 2.95262C11.7617 2.33356 11.0267 1.8425 10.2179 1.50747C9.40905 1.17244 8.54215 1 7.66667 1V1Z" fill="#666666"/>
</svg>
