<svg width="16" height="16" viewBox="0 0 16 16" fill="none" xmlns="http://www.w3.org/2000/svg">
<path d="M8.5 1C4.91015 1 2 3.91015 2 7.5C2 11.0899 4.91015 14 8.5 14C12.0899 14 15 11.0899 15 7.5C15 3.91015 12.0899 1 8.5 1ZM6.16406 3.58191C6.29798 3.57401 6.41904 3.65406 6.51081 3.79614L7.39947 5.48144C7.49304 5.68114 7.43987 5.89497 7.30029 6.03765L6.89325 6.44469C6.86813 6.47912 6.8516 6.51789 6.8512 6.56053C7.0073 7.16476 7.4808 7.72212 7.89858 8.1054C8.31633 8.48868 8.76534 9.00761 9.34821 9.13055C9.42025 9.15064 9.50851 9.15785 9.56006 9.10993L10.033 8.6283C10.1962 8.50458 10.4323 8.44461 10.6066 8.54578H10.6146L12.2181 9.49238C12.4535 9.63992 12.4779 9.92511 12.3094 10.0986L11.2049 11.1943C11.0418 11.3616 10.8251 11.4178 10.6146 11.4181C9.68348 11.3902 8.8037 10.9332 8.08108 10.4636C6.89493 9.60066 5.80691 8.5304 5.12385 7.23737C4.86187 6.69516 4.55413 6.00334 4.5835 5.39815C4.58612 5.17048 4.64772 4.94743 4.80805 4.80068L5.91255 3.69619C5.99858 3.62298 6.0837 3.58665 6.16406 3.58191V3.58191Z" fill="#666666"/>
</svg>
