<svg width="31" height="31" viewBox="0 0 31 31" fill="none" xmlns="http://www.w3.org/2000/svg">
<path d="M15.36 0C6.87771 0 0 6.87771 0 15.36C0 23.8423 6.87771 30.72 15.36 30.72C23.8423 30.72 30.72 23.8423 30.72 15.36C30.72 6.87771 23.8423 0 15.36 0ZM22.7417 11.5783C22.752 11.7394 22.752 11.9074 22.752 12.072C22.752 17.1051 18.9189 22.9029 11.9143 22.9029C9.75429 22.9029 7.752 22.2754 6.06514 21.1954C6.37371 21.2297 6.66857 21.2434 6.984 21.2434C8.76686 21.2434 10.4057 20.64 11.712 19.6183C10.0389 19.584 8.63314 18.4869 8.15314 16.9783C8.73943 17.064 9.26743 17.064 9.87086 16.9097C9.00935 16.7347 8.235 16.2668 7.67937 15.5855C7.12374 14.9043 6.8211 14.0517 6.82286 13.1726V13.1246C7.32686 13.4091 7.92 13.584 8.54057 13.608C8.01889 13.2603 7.59106 12.7893 7.29501 12.2367C6.99896 11.6841 6.84385 11.0669 6.84343 10.44C6.84343 9.73029 7.02857 9.08229 7.36114 8.52C8.31738 9.69715 9.51062 10.6599 10.8633 11.3457C12.216 12.0315 13.6979 12.425 15.2126 12.5006C14.6743 9.912 16.608 7.81714 18.9326 7.81714C20.0297 7.81714 21.0171 8.27657 21.7131 9.01714C22.5737 8.856 23.3966 8.53371 24.1303 8.10171C23.8457 8.98286 23.2491 9.72686 22.4571 10.1966C23.2251 10.1143 23.9657 9.90171 24.6514 9.60343C24.1337 10.3646 23.4857 11.04 22.7417 11.5783V11.5783Z" fill="#525252"/>
</svg>
